<?xml version="1.0" encoding="UTF-8"?>
<svg version="1.1" xmlns="http://www.w3.org/2000/svg" width="222" height="222">
<path d="M0 0 C0.64324219 0.38921631 1.28648438 0.77843262 1.94921875 1.17944336 C2.61953125 1.6100708 3.28984375 2.04069824 3.98046875 2.484375 C4.70621094 2.93111572 5.43195313 3.37785645 6.1796875 3.83813477 C8.52059943 5.28597481 10.84432685 6.75900873 13.16796875 8.234375 C14.74411646 9.2185301 16.32094204 10.20160039 17.8984375 11.18359375 C25.72832624 16.0776755 33.48688275 21.08023145 41.23046875 26.109375 C49.55624261 31.51082642 57.77742543 36.77219595 66.84375 40.86328125 C69.16796875 42.234375 69.16796875 42.234375 71.5078125 44.60546875 C75.05012641 48.10616958 79.04754051 50.37641712 83.34765625 52.83984375 C87.9723401 55.64417332 87.9723401 55.64417332 89.08984375 59.015625 C89.12851562 60.11390625 89.12851562 60.11390625 89.16796875 61.234375 C84.55254245 64.61902096 79.68710221 65.32345006 74.16796875 66.234375 C73.75468286 76.78081865 74.57104774 86.81269371 76.10083008 97.25024414 C76.83510225 102.31074499 77.33821022 107.12003762 77.16796875 112.234375 C72.05704381 113.25655999 69.02005413 113.03500725 64.16796875 111.234375 C63.68533731 98.07819955 65.04710266 85.4160244 66.89257812 72.39477539 C67.21011836 70.26669762 67.21011836 70.26669762 67.16796875 68.234375 C65.51861328 68.63269531 65.51861328 68.63269531 63.8359375 69.0390625 C41.90675243 74.2953103 41.90675243 74.2953103 34.16796875 74.234375 C34.14814941 74.84958008 34.12833008 75.46478516 34.10791016 76.09863281 C34.01247148 78.89430042 33.9028692 81.6892401 33.79296875 84.484375 C33.76203125 85.45246094 33.73109375 86.42054688 33.69921875 87.41796875 C33.64121094 88.81982422 33.64121094 88.81982422 33.58203125 90.25 C33.55061035 91.10883789 33.51918945 91.96767578 33.48681641 92.85253906 C33.14659542 95.39403673 32.50214884 97.05599864 31.16796875 99.234375 C17.78409611 108.65265575 -13.79828268 101.1934354 -29.01000977 98.61523438 C-42.6728969 96.08568645 -56.94042053 92.65130746 -68.83203125 85.234375 C-69.45851562 84.85925781 -70.085 84.48414063 -70.73046875 84.09765625 C-72.20703125 82.984375 -72.20703125 82.984375 -73.83203125 80.234375 C-73.68853515 76.74679582 -72.73992125 73.58962067 -71.83203125 70.234375 C-71.13238446 66.90740546 -70.4776058 63.57221942 -69.83203125 60.234375 C-70.91750244 59.60160645 -70.91750244 59.60160645 -72.02490234 58.95605469 C-96.43311792 44.69568338 -96.43311792 44.69568338 -107.20703125 37.546875 C-108.2731665 36.84546387 -108.2731665 36.84546387 -109.36083984 36.12988281 C-113.24300097 33.51263147 -116.85892195 30.90042013 -119.83203125 27.234375 C-119.70110989 25.18340778 -119.70110989 25.18340778 -118.83203125 23.234375 C-117.11335087 22.27047253 -117.11335087 22.27047253 -114.88771057 21.63188171 C-113.66132213 21.27342195 -113.66132213 21.27342195 -112.41015816 20.90772057 C-108.26725742 19.82569321 -104.11991629 18.80899653 -99.94116211 17.87426758 C-98.9968483 17.65925095 -98.05253448 17.44423431 -97.0796051 17.22270203 C-93.98643974 16.51990846 -90.89177741 15.82400739 -87.796875 15.12890625 C-85.63168324 14.64010671 -83.46652776 14.1511464 -81.30140686 13.66203308 C-76.77580389 12.64096806 -72.24937727 11.62365026 -67.72241211 10.60864258 C-61.93139341 9.30963209 -56.14318654 7.99853138 -50.35561275 6.68426991 C-45.88988616 5.67208233 -41.42242498 4.66772665 -36.95443916 3.66556358 C-34.81966285 3.18547566 -32.68550071 2.70264795 -30.55198479 2.21698952 C-27.56759225 1.53858481 -24.58094707 0.87113046 -21.59350586 0.20629883 C-20.7200351 0.00529572 -19.84656433 -0.1957074 -18.94662476 -0.40280151 C-5.41509453 -3.37659216 -5.41509453 -3.37659216 0 0 Z " fill="#292929" transform="translate(125.83203125,63.765625)"/>
<path d="M0 0 C0.7339801 0.09025452 1.46796021 0.18050903 2.22418213 0.27349854 C16.77247298 2.07349505 31.02823414 4.57851084 45.31640625 7.87109375 C46.5379541 8.15033691 47.75950195 8.42958008 49.01806641 8.71728516 C51.41245317 9.26880658 53.8042418 9.83176871 56.19287109 10.40771484 C57.28293457 10.66117676 58.37299805 10.91463867 59.49609375 11.17578125 C60.46216553 11.40692627 61.4282373 11.63807129 62.42358398 11.8762207 C65.59278152 12.29533113 68.13855628 11.91832027 71.25 11.25 C70.755 6.795 70.755 6.795 70.25 2.25 C70.91 2.25 71.57 2.25 72.25 2.25 C72.35806144 5.16765891 72.43732877 8.08131125 72.5 11 C72.53351563 11.825 72.56703125 12.65 72.6015625 13.5 C72.66198903 17.24644507 72.69463358 19.54122767 70.671875 22.765625 C55.64699001 31.97442548 21.73997106 23.92565797 5.25 20.25 C-21.03543554 13.71062718 -21.03543554 13.71062718 -27.75 6.25 C-28.348125 5.71375 -28.94625 5.1775 -29.5625 4.625 C-30.75 3.25 -30.75 3.25 -30.75 0.25 C-21.00819629 -3.74663742 -10.14404575 -1.26254894 0 0 Z " fill="#141414" transform="translate(84.75,140.75)"/>
<path d="M0 0 C6.76072764 1.98314677 12.29454493 4.13484793 17.25 9.3828125 C21.12640758 13.07200721 25.57974067 15.34927284 30.234375 17.9375 C33 20 33 20 33.890625 22.75 C33.94476563 23.86375 33.94476563 23.86375 34 25 C29.3845737 28.38464596 24.51913346 29.08907506 19 30 C18.58671411 40.54644365 19.40307899 50.57831871 20.93286133 61.01586914 C21.6671335 66.07636999 22.17024147 70.88566262 22 76 C16.88907506 77.02218499 13.85208538 76.80063225 9 75 C8.51736856 61.84382455 9.87913391 49.1816494 11.72460938 36.16040039 C12.04214961 34.03232262 12.04214961 34.03232262 12 32 C11.34 31.67 10.68 31.34 10 31 C10.99 30.67 11.98 30.34 13 30 C12.75122898 26.56052854 12.4722077 23.12416852 12.1875 19.6875 C12.11724609 18.71103516 12.04699219 17.73457031 11.97460938 16.72851562 C11.89404297 15.79072266 11.81347656 14.85292969 11.73046875 13.88671875 C11.62835083 12.59060669 11.62835083 12.59060669 11.52416992 11.26831055 C10.9129727 8.62339513 9.97037178 7.78778906 8 6 C8 5.34 8 4.68 8 4 C6.865625 3.71125 5.73125 3.4225 4.5625 3.125 C3.386875 2.75375 2.21125 2.3825 1 2 C0.67 1.34 0.34 0.68 0 0 Z " fill="#B4A374" transform="translate(181,100)"/>
<path d="M0 0 C4.00726378 0.70559794 6.53847603 1.85715183 10 4 C11.19625 4.495 12.3925 4.99 13.625 5.5 C18.50931677 7.67080745 18.50931677 7.67080745 20 10 C19.74853421 12.13745922 19.54074221 13.45925779 18 15 C15.16027465 15.32351301 12.31926263 15.5130429 9.46875 15.71875 C7.0586395 15.73385265 7.0586395 15.73385265 6 17 C4.33382885 17.04063832 2.66611905 17.042721 1 17 C0.09586327 13.16275828 -0.10576898 9.62497726 -0.0625 5.6875 C-0.05347656 4.61886719 -0.04445312 3.55023438 -0.03515625 2.44921875 C-0.02355469 1.64097656 -0.01195312 0.83273438 0 0 Z " fill="#7E6C3B" transform="translate(195,112)"/>
<path d="M0 0 C0.33 0 0.66 0 1 0 C1.06058594 0.78246094 1.12117187 1.56492188 1.18359375 2.37109375 C1.26738281 3.38300781 1.35117188 4.39492187 1.4375 5.4375 C1.51871094 6.44683594 1.59992188 7.45617187 1.68359375 8.49609375 C1.73211468 10.93640779 1.73211468 10.93640779 3 12 C3.40532999 14.73079986 3.75479248 17.44548407 4.0625 20.1875 C4.15337891 20.94353516 4.24425781 21.69957031 4.33789062 22.47851562 C4.82221236 26.67718446 5.1013102 30.76523344 5 35 C-1.75 35.125 -1.75 35.125 -4 34 C-4 29.05 -4 24.1 -4 19 C-3.34 19.33 -2.68 19.66 -2 20 C-1.93941406 18.72382813 -1.87882813 17.44765625 -1.81640625 16.1328125 C-1.73200432 14.46352984 -1.64735614 12.79425963 -1.5625 11.125 C-1.52318359 10.28324219 -1.48386719 9.44148437 -1.44335938 8.57421875 C-1.40146484 7.76855469 -1.35957031 6.96289062 -1.31640625 6.1328125 C-1.27974854 5.38918457 -1.24309082 4.64555664 -1.20532227 3.87939453 C-1 2 -1 2 0 0 Z " fill="#C69F3E" transform="translate(196,140)"/>
<path d="M0 0 C1.32 0 2.64 0 4 0 C4.04946866 4.07507572 4.08575189 8.15003497 4.10986328 12.2253418 C4.1199157 13.61144048 4.1335597 14.99751799 4.15087891 16.38354492 C4.17515952 18.3766975 4.18542031 20.37000533 4.1953125 22.36328125 C4.20578613 23.56251221 4.21625977 24.76174316 4.22705078 25.99731445 C4 29 4 29 2 32 C1.54227937 34.73872955 1.54227937 34.73872955 1.375 37.6875 C1.30023438 38.68136719 1.22546875 39.67523438 1.1484375 40.69921875 C1.09945312 41.45847656 1.05046875 42.21773437 1 43 C3.97 43.33 6.94 43.66 10 44 C9.7834375 42.61941406 9.7834375 42.61941406 9.5625 41.2109375 C8.26623462 32.37112774 7.75171226 23.95215232 8 15 C8.33 15 8.66 15 9 15 C9.50755197 18.68650112 10.00467512 22.37433775 10.5 26.0625 C10.64308594 27.10083984 10.78617188 28.13917969 10.93359375 29.20898438 C11.64201705 34.5221591 12.18248153 39.63960518 12 45 C6.88907506 46.02218499 3.85208538 45.80063225 -1 44 C-1.48263144 30.84382455 -0.12086609 18.1816494 1.72460938 5.16040039 C2.04214961 3.03232262 2.04214961 3.03232262 2 1 C1.34 0.67 0.68 0.34 0 0 Z " fill="#ECDCAD" transform="translate(191,131)"/>
<path d="M0 0 C5.50716072 -0.22028643 9.78290469 0.04358926 15 2 C34.88397368 7.14987738 55.63899418 6.24663909 76 6 C71.91382825 10.08617175 64.86202932 9.16044364 59.375 9.1875 C39.5806252 9.14575362 18.95021156 6.88541813 0 1 C0 0.67 0 0.34 0 0 Z " fill="#B2B2B2" transform="translate(79,157)"/>
<path d="M0 0 C0.66 0 1.32 0 2 0 C2 0.66 2 1.32 2 2 C2.680625 2.12375 3.36125 2.2475 4.0625 2.375 C7.4277412 3.09100877 10.70013425 4.02945125 14 5 C14 6.32 14 7.64 14 9 C11.11387138 10.92408575 10.2478839 11.27338912 7 11.5625 C4.40222383 11.8035815 2.51908403 12.16030532 0 13 C0 8.71 0 4.42 0 0 Z " fill="#201F1E" transform="translate(199,116)"/>
<path d="M0 0 C0.33 0 0.66 0 1 0 C0.54177532 3.46941546 0.10868317 6.67395049 -1 10 C-0.34 10.33 0.32 10.66 1 11 C0.34 11 -0.32 11 -1 11 C-1.33 12.65 -1.66 14.3 -2 16 C-3.32 16.33 -4.64 16.66 -6 17 C-6.24134297 18.62044564 -6.47633689 20.24203055 -6.68359375 21.8671875 C-7 24 -7 24 -7.53515625 26.2578125 C-8.02162057 28.6696944 -8.31463729 30.55380583 -8 33 C-6.00666794 35.53980691 -3.71299945 37.27477591 -1 39 C-1.99 39.495 -1.99 39.495 -3 40 C-6.96 36.535 -6.96 36.535 -11 33 C-9.66666667 26.33333333 -8.33333333 19.66666667 -7 13 C-8.65 11.68 -10.3 10.36 -12 9 C-6.25 9.875 -6.25 9.875 -4 11 C-3.87625 10.278125 -3.7525 9.55625 -3.625 8.8125 C-2.14285714 2.14285714 -2.14285714 2.14285714 0 0 Z " fill="#8F8F8F" transform="translate(63,111)"/>
<path d="M0 0 C0.85305168 2.90669462 1.07289715 5.31048873 0.87890625 8.328125 C0.83056641 9.12734375 0.78222656 9.9265625 0.73242188 10.75 C0.67634766 11.575 0.62027344 12.4 0.5625 13.25 C0.51029297 14.09046875 0.45808594 14.9309375 0.40429688 15.796875 C0.27504311 17.8649352 0.13825726 19.9325222 0 22 C-0.66 21.67 -1.32 21.34 -2 21 C-2.59772099 18.0170339 -2.74337815 15.03669195 -3 12 C-3.33 17.61 -3.66 23.22 -4 29 C-4.33 29 -4.66 29 -5 29 C-5.02929977 25.64585201 -5.0468989 22.29173747 -5.0625 18.9375 C-5.07087891 17.99455078 -5.07925781 17.05160156 -5.08789062 16.08007812 C-5.10581103 10.9369232 -4.89259611 6.06741573 -4 1 C-3.67 1.66 -3.34 2.32 -3 3 C-2.01 3 -1.02 3 0 3 C0 2.01 0 1.02 0 0 Z " fill="#DEC37E" transform="translate(199,130)"/>
<path d="M0 0 C0.33 0 0.66 0 1 0 C1.66807334 6.5137151 2.11373318 13.01487928 2.25 19.5625 C2.27578125 20.71878906 2.3015625 21.87507813 2.328125 23.06640625 C2 26 2 26 0.609375 27.90234375 C-1 29 -1 29 -3 29 C-3 25.04 -3 21.08 -3 17 C-2.34 17.33 -1.68 17.66 -1 18 C-0.505 9.09 -0.505 9.09 0 0 Z " fill="#D5AD49" transform="translate(195,142)"/>
<path d="M0 0 C4.97867599 1.67598994 9.08792256 4.50299404 13.4375 7.375 C14.54448242 8.09816406 14.54448242 8.09816406 15.67382812 8.8359375 C19.79804352 11.53409086 23.90333776 14.2602354 28 17 C27.34 17.33 26.68 17.66 26 18 C25.01 17.34 24.02 16.68 23 16 C21.0103005 15.60986284 19.00980131 15.26797351 17 15 C17 14.34 17 13.68 17 13 C15.35 12.67 13.7 12.34 12 12 C12 11.01 12 10.02 12 9 C10.37375983 7.56054703 10.37375983 7.56054703 8.25 6.375 C7.55390625 5.94960937 6.8578125 5.52421875 6.140625 5.0859375 C4.08453468 4.04288438 2.25138904 3.45636264 0 3 C0 2.01 0 1.02 0 0 Z " fill="#BDBDBD" transform="translate(153,82)"/>
<path d="M0 0 C-9.92868489 4.63338628 -19.02375798 6.51720512 -30 6 C-30 5.67 -30 5.34 -30 5 C-25.79015969 4.00433168 -21.57968459 3.01171187 -17.3671875 2.02734375 C-14.90918976 1.45241336 -12.45727942 0.86467411 -10.0078125 0.25390625 C-6.26892248 -0.65878576 -3.68188306 -1.12976103 0 0 Z " fill="#474747" transform="translate(101,68)"/>
<path d="M0 0 C3.23339147 1.25163541 6.43509339 2.57931791 9.625 3.9375 C10.38039062 4.25589844 11.13578125 4.57429688 11.9140625 4.90234375 C14.0762487 6.04012338 15.47497257 7.09494955 17 9 C16.6875 11.1875 16.6875 11.1875 16 13 C14.68 13.33 13.36 13.66 12 14 C12.33 13.34 12.66 12.68 13 12 C13.66 12 14.32 12 15 12 C15 10.68 15 9.36 15 8 C13.948125 7.87625 12.89625 7.7525 11.8125 7.625 C8.54041229 7.08859218 5.99463924 6.36119965 3 5 C3 4.34 3 3.68 3 3 C2.34 3 1.68 3 1 3 C0.67 3.99 0.34 4.98 0 6 C0 4.02 0 2.04 0 0 Z " fill="#696865" transform="translate(198,113)"/>
<path d="M0 0 C0.33 0 0.66 0 1 0 C1.33 4.29 1.66 8.58 2 13 C3.98 12.34 5.96 11.68 8 11 C10.71061275 10.77336014 13.27148292 10.9059132 16 11 C12.46588679 13.12046792 9.05606165 13.53199289 5 14 C5 14.99 5 15.98 5 17 C4.01 17 3.02 17 2 17 C2 16.34 2 15.68 2 15 C0.68 14.67 -0.64 14.34 -2 14 C-1.34 14 -0.68 14 0 14 C0 9.38 0 4.76 0 0 Z " fill="#ACA490" transform="translate(194,116)"/>
<path d="M0 0 C-3.96 0.99 -7.92 1.98 -12 3 C-11.67 4.32 -11.34 5.64 -11 7 C-9.8553125 7.061875 -9.8553125 7.061875 -8.6875 7.125 C-6 8 -6 8 -4.1875 11.0625 C-3.795625 12.031875 -3.40375 13.00125 -3 14 C-6.99698189 12.62960621 -9.95838787 10.9571229 -13 8 C-13.8125 5.25 -13.8125 5.25 -14 3 C-8.98107632 -0.29814984 -5.90990836 -1.47747709 0 0 Z " fill="#D2D2D2" transform="translate(20,85)"/>
<path d="M0 0 C0 0.66 0 1.32 0 2 C-0.66 2.66 -1.32 3.32 -2 4 C-2.33 4.99 -2.66 5.98 -3 7 C-4.98 7 -6.96 7 -9 7 C-9.33 5.35 -9.66 3.7 -10 2 C-6.38026598 0.68373308 -3.90432869 0 0 0 Z " fill="#2D2D2D" transform="translate(18,86)"/>
<path d="M0 0 C4.99213851 0.46801299 9.12963993 2.91715737 13 6 C13 6.66 13 7.32 13 8 C14.65 8.33 16.3 8.66 18 9 C18 9.66 18 10.32 18 11 C13.28501126 9.64780353 9.67370412 7.69161848 5.625 4.9375 C4.56539062 4.22464844 3.50578125 3.51179688 2.4140625 2.77734375 C1.61742188 2.19082031 0.82078125 1.60429688 0 1 C0 0.67 0 0.34 0 0 Z " fill="#A3A3A3" transform="translate(25,104)"/>
<path d="M0 0 C-7.04906428 3.37129161 -14.1501867 5.18157931 -22 5 C-19.06785146 2.06785146 -15.48633847 1.7100254 -11.5625 0.8125 C-10.39750977 0.52729492 -10.39750977 0.52729492 -9.20898438 0.23632812 C-8.0865332 -0.02567383 -8.0865332 -0.02567383 -6.94140625 -0.29296875 C-6.25763916 -0.4530542 -5.57387207 -0.61313965 -4.86938477 -0.77807617 C-3 -1 -3 -1 0 0 Z " fill="#1B1B1B" transform="translate(61,80)"/>
<path d="M0 0 C2.25090196 3.37635295 2.39443591 5.13740663 2.6875 9.125 C2.77386719 10.20007813 2.86023438 11.27515625 2.94921875 12.3828125 C2.96597656 13.24648437 2.98273438 14.11015625 3 15 C2 16 2 16 -1.0625 16.0625 C-2.031875 16.041875 -3.00125 16.02125 -4 16 C-3.51917969 15.64292969 -3.03835937 15.28585938 -2.54296875 14.91796875 C-0.31575162 12.14945328 -0.48605989 9.81840977 -0.3125 6.3125 C-0.21388672 4.54326172 -0.21388672 4.54326172 -0.11328125 2.73828125 C-0.07589844 1.83464844 -0.03851563 0.93101562 0 0 Z " fill="#BE962E" transform="translate(198,157)"/>
<path d="M0 0 C5.51068783 -0.22042751 9.77092924 0.06751733 15 2 C17.32694964 2.37531446 19.65976685 2.71917202 22 3 C22 3.33 22 3.66 22 4 C14.12309743 4.41136629 7.49701701 3.436168 0 1 C0 0.67 0 0.34 0 0 Z " fill="#888888" transform="translate(79,157)"/>
<path d="M0 0 C3.01388674 0.67280387 5.73335697 1.63994264 8.5625 2.875 C9.32691406 3.20242187 10.09132812 3.52984375 10.87890625 3.8671875 C13.01542181 5.00823633 14.39415134 6.20432259 16 8 C14.948125 7.5359375 14.948125 7.5359375 13.875 7.0625 C10.91063343 5.96697322 8.12301892 5.43577008 5 5 C5 4.34 5 3.68 5 3 C3.35 2.67 1.7 2.34 0 2 C0 1.34 0 0.68 0 0 Z " fill="#767576" transform="translate(165,92)"/>
<path d="M0 0 C2.01822917 0.29296875 4.03645833 0.5859375 6.0546875 0.87890625 C8.08140667 1.1684297 8.08140667 1.1684297 10 0 C9.74438677 2.3431213 9.40729228 4.67843403 9 7 C8.01 7.495 8.01 7.495 7 8 C7 6.35 7 4.7 7 3 C5.824375 2.814375 5.824375 2.814375 4.625 2.625 C2 2 2 2 0 0 Z " fill="#717171" transform="translate(51,120)"/>
<path d="M0 0 C-5.36439644 2.68219822 -9.01006953 3.3152595 -15 3 C-12.74829688 0.74829688 -11.67012422 0.48526 -8.625 -0.1875 C-7.85414062 -0.36667969 -7.08328125 -0.54585938 -6.2890625 -0.73046875 C-3.88917728 -1.01304909 -2.28329465 -0.73503321 0 0 Z " fill="#474747" transform="translate(57,78)"/>
<path d="M0 0 C0.66 0 1.32 0 2 0 C2.05402274 2.10388569 2.09280256 4.20816714 2.125 6.3125 C2.14820313 7.48425781 2.17140625 8.65601563 2.1953125 9.86328125 C2 13 2 13 0 16 C0 15.34 0 14.68 0 14 C-0.66 14 -1.32 14 -2 14 C-1.505 13.0409375 -1.505 13.0409375 -1 12.0625 C0.33056928 7.98763159 0.16659199 4.24809575 0 0 Z " fill="#030303" transform="translate(155,143)"/>
<path d="M0 0 C2.26609984 4.53219967 1.92735976 6.17772925 1 11 C0.34 11 -0.32 11 -1 11 C-1 11.66 -1 12.32 -1 13 C-1.66 12.67 -2.32 12.34 -3 12 C-2.01 8.04 -1.02 4.08 0 0 Z " fill="#474747" transform="translate(57,128)"/>
<path d="M0 0 C0.33 0 0.66 0 1 0 C1.66 4.95 2.32 9.9 3 15 C1.35 15 -0.3 15 -2 15 C-1.34 14.67 -0.68 14.34 0 14 C0 9.38 0 4.76 0 0 Z " fill="#A4905C" transform="translate(194,116)"/>
<path d="M0 0 C0.65355469 0.58007812 0.65355469 0.58007812 1.3203125 1.171875 C5.05744652 4.43984501 8.8076016 7.34140589 13 10 C12.01 10.495 12.01 10.495 11 11 C8.65234375 9.9609375 8.65234375 9.9609375 5.9375 8.375 C5.03902344 7.86710937 4.14054688 7.35921875 3.21484375 6.8359375 C1 5 1 5 0.19140625 2.2890625 C0.12824219 1.53367187 0.06507813 0.77828125 0 0 Z " fill="#CCC4B2" transform="translate(194,106)"/>
<path d="M0 0 C0.99 0.33 1.98 0.66 3 1 C3 5.62 3 10.24 3 15 C2.67 15 2.34 15 2 15 C1.34 10.05 0.68 5.1 0 0 Z " fill="#27210F" transform="translate(190,110)"/>
<path d="M0 0 C3.96 1.98 3.96 1.98 8 4 C8 4.99 8 5.98 8 7 C4.21388773 6.45912682 2.44599233 4.88277668 0 2 C0 1.34 0 0.68 0 0 Z " fill="#3E3E3E" transform="translate(157,86)"/>
<path d="M0 0 C0.66 0 1.32 0 2 0 C2 0.66 2 1.32 2 2 C2.66 2 3.32 2 4 2 C4 2.66 4 3.32 4 4 C3.01 4 2.02 4 1 4 C1 6.64 1 9.28 1 12 C0.67 12 0.34 12 0 12 C0 8.04 0 4.08 0 0 Z " fill="#1D180A" transform="translate(199,116)"/>
<path d="M0 0 C1.32 0 2.64 0 4 0 C4.99 1.98 5.98 3.96 7 6 C2.32307692 4.52307692 2.32307692 4.52307692 0.6875 1.875 C0.460625 1.25625 0.23375 0.6375 0 0 Z " fill="#989898" transform="translate(10,93)"/>
<path d="M0 0 C0 0.66 0 1.32 0 2 C-3.3 2.66 -6.6 3.32 -10 4 C-10 3.34 -10 2.68 -10 2 C-6.38026598 0.68373308 -3.90432869 0 0 0 Z " fill="#454545" transform="translate(18,86)"/>
<path d="M0 0 C-7.28571429 3.42857143 -7.28571429 3.42857143 -12 3 C-4.82142857 -1.78571429 -4.82142857 -1.78571429 0 0 Z " fill="#404040" transform="translate(101,68)"/>
</svg>
